<svg width="100" height="100" viewBox="0 0 100 100" fill="none" xmlns="http://www.w3.org/2000/svg">
<g id="astro">
<path id="Vector" d="M35.7 85.2001C31.2 81.1001 29.9 72.4001 31.8 66.1001C35.1 70.1001 39.6 71.3001 44.2 72.0001C51.4 73.1001 58.5 72.7001 65.2 69.4001C66 69.0001 66.7 68.5001 67.5 68.0001C68.1 69.8001 68.3 71.7001 68.1 73.6001C67.6 78.2001 65.3 81.7001 61.7 84.4001C60.3 85.5001 58.7 86.4001 57.2 87.4001C52.6 90.5001 51.4 94.1001 53.1 99.4001C53.1 99.5001 53.2 99.7001 53.3 100C51 98.9001 49.3 97.4001 48 95.4001C46.6 93.3001 46 90.9001 45.9 88.4001C45.9 87.2001 45.9 85.9001 45.7 84.7001C45.3 81.7001 43.9 80.4001 41.3 80.3001C38.6 80.2001 36.5 81.9001 35.9 84.5001C35.8 84.7001 35.8 84.9001 35.7 85.2001Z" fill="#838383"/>
<path id="Vector_2" d="M10 65C10 65 23.3 58.5 36.7 58.5L46.8 27.2C47.2 25.7 48.3 24.7 49.5 24.7C50.7 24.7 51.8 25.7 52.2 27.2L62.3 58.5C78.1 58.5 89 65 89 65C89 65 66.4 3.1 66.3 3C65.7 1.2 64.6 0 63.1 0H35.9C34.4 0 33.4 1.2 32.7 3C32.6 3.1 10 65 10 65Z" fill="#020202"/>
</g>
</svg>
