<svg width="100" height="100" viewBox="0 0 100 100" fill="none" xmlns="http://www.w3.org/2000/svg">
<g id="aws" clip-path="url(#clip0_790_7514)">
<path id="Vector" d="M28.2 41.7C28.2 42.9 28.3 43.9 28.6 44.7C28.9 45.4 29.2 46.2 29.7 47.1C29.9 47.4 29.9 47.6 29.9 47.9C29.9 48.2 29.7 48.6 29.3 48.9L27.2 50.3C26.9 50.5 26.6 50.6 26.3 50.6C26 50.6 25.6 50.4 25.3 50.1C24.8 49.6 24.4 49.1 24.1 48.5C23.8 47.9 23.4 47.3 23.1 46.5C20.5 49.6 17.2 51.1 13.3 51.1C10.5 51.1 8.29998 50.3 6.59998 48.7C4.99998 47.1 4.09998 45 4.09998 42.3C4.09998 39.5 5.09998 37.2 7.09998 35.4C9.09998 33.7 11.8 32.8 15.2 32.8C16.3 32.8 17.5 32.9 18.7 33.1C19.9 33.3 21.2 33.5 22.5 33.8V31.4C22.5 28.9 22 27.1 20.9 26.1C19.8 25.1 18 24.6 15.5 24.6C14.3 24.6 13.1 24.7 11.9 25C10.7 25.3 9.49998 25.7 8.29998 26.1C7.79998 26.3 7.39998 26.5 7.09998 26.5C6.89998 26.6 6.69998 26.6 6.59998 26.6C6.09998 26.6 5.89998 26.3 5.89998 25.6V24C5.89998 23.5 5.99998 23.1 6.09998 22.8C6.29998 22.6 6.59998 22.3 6.99998 22.1C8.19998 21.5 9.59998 21 11.2 20.6C12.8 20.2 14.6 20 16.4 20C20.4 20 23.3 20.9 25.1 22.7C26.9 24.5 27.9 27.2 27.9 30.9L28.2 41.7ZM14.7 46.8C15.8 46.8 16.9 46.6 18.1 46.2C19.3 45.8 20.4 45.1 21.3 44.1C21.8 43.5 22.2 42.8 22.4 42C22.6 41.2 22.7 40.2 22.7 39.1V37.7C21.7 37.5 20.7 37.3 19.6 37.1C18.5 37 17.5 36.9 16.5 36.9C14.3 36.9 12.6 37.3 11.5 38.2C10.5 39.1 9.99998 40.4 9.99998 42C9.99998 43.6 10.4 44.7 11.2 45.5C12 46.4 13.1 46.8 14.7 46.8ZM41.4 50.4C40.8 50.4 40.4 50.3 40.1 50.1C39.8 49.9 39.6 49.4 39.4 48.8L31.6 23C31.4 22.3 31.3 21.9 31.3 21.7C31.3 21.2 31.6 20.9 32.1 20.9H35.4C36 20.9 36.5 21 36.7 21.2C37 21.4 37.2 21.9 37.4 22.5L43 44.5L48.2 22.5C48.4 21.8 48.6 21.4 48.8 21.2C49.1 21 49.5 20.9 50.1 20.9H52.8C53.4 20.9 53.9 21 54.1 21.2C54.4 21.4 54.6 21.9 54.7 22.5L60 44.8L65.8 22.5C66 21.8 66.2 21.4 66.5 21.2C66.8 21 67.2 20.9 67.8 20.9H70.9C71.4 20.9 71.7 21.2 71.7 21.7C71.7 21.9 71.7 22 71.6 22.2C71.6 22.4 71.5 22.7 71.4 23L63.4 48.7C63.2 49.4 63 49.8 62.7 50C62.4 50.2 62 50.3 61.4 50.3H58.5C57.9 50.3 57.4 50.2 57.2 50C56.9 49.8 56.7 49.3 56.6 48.7L51.4 27.2L46.3 48.6C46.1 49.3 45.9 49.7 45.7 49.9C45.4 50.1 45 50.2 44.4 50.2H41.4V50.4ZM84.1 51.3C82.4 51.3 80.6 51.1 79 50.7C77.3 50.3 76 49.9 75.2 49.4C74.7 49.1 74.3 48.8 74.2 48.5C74.1 48.2 74 47.9 74 47.6V45.9C74 45.2 74.3 44.9 74.8 44.9C75 44.9 75.2 44.9 75.4 45C75.6 45.1 75.9 45.2 76.2 45.3C77.3 45.8 78.6 46.2 79.9 46.5C81.2 46.8 82.5 46.9 83.9 46.9C86 46.9 87.6 46.5 88.8 45.8C90 45.1 90.5 44 90.5 42.6C90.5 41.7 90.2 40.9 89.6 40.3C89 39.7 87.9 39.1 86.2 38.6L81.4 37.1C79 36.3 77.2 35.2 76.1 33.7C75 32.2 74.4 30.6 74.4 28.9C74.4 27.5 74.7 26.3 75.3 25.2C75.9 24.1 76.7 23.2 77.7 22.5C78.7 21.7 79.8 21.2 81.2 20.8C82.5 20.4 83.9 20.2 85.4 20.2C86.1 20.2 86.9 20.2 87.6 20.3C88.4 20.4 89.1 20.5 89.8 20.7C90.5 20.9 91.1 21 91.7 21.2C92.3 21.4 92.8 21.6 93.1 21.8C93.6 22.1 93.9 22.3 94.1 22.6C94.3 22.9 94.4 23.2 94.4 23.7V25.3C94.4 26 94.1 26.4 93.6 26.4C93.3 26.4 92.9 26.3 92.3 26C90.4 25.1 88.3 24.7 85.9 24.7C84 24.7 82.5 25 81.5 25.6C80.5 26.2 79.9 27.2 79.9 28.6C79.9 29.5 80.2 30.3 80.9 31C81.6 31.6 82.8 32.3 84.6 32.8L89.3 34.3C91.7 35.1 93.4 36.1 94.5 37.5C95.5 38.9 96 40.4 96 42.2C96 43.6 95.7 44.9 95.1 46.1C94.5 47.2 93.7 48.2 92.7 49C91.7 49.8 90.4 50.4 89 50.9C87.4 51 85.8 51.3 84.1 51.3Z" fill="#2E2E2E"/>
<path id="Vector_2" fill-rule="evenodd" clip-rule="evenodd" d="M90.4 67.3999C79.5 75.4999 63.6 79.7999 49.9 79.7999C30.7 79.7999 13.5 72.6999 0.399996 60.8999C-0.600004 59.9999 0.299996 58.6999 1.5 59.3999C15.6 67.5999 33 72.4999 51 72.4999C63.1 72.4999 76.5 69.9999 88.7 64.7999C90.6 64.0999 92.2 66.0999 90.4 67.3999Z" fill="#A7A7A7"/>
<path id="Vector_3" fill-rule="evenodd" clip-rule="evenodd" d="M95 62.2001C93.6 60.4001 85.8 61.3001 82.2 61.8001C81.1 61.9001 81 61.0001 81.9 60.3001C88.2 55.9001 98.4 57.2001 99.6 58.6001C100.8 60.1001 99.3 70.4001 93.4 75.3001C92.5 76.1001 91.6 75.7001 92 74.7001C93.4 71.4001 96.4 64.0001 95 62.2001Z" fill="#A7A7A7"/>
</g>
<defs>
<clipPath id="clip0_790_7514">
<rect width="100" height="100" fill="white"/>
</clipPath>
</defs>
</svg>
