<svg xmlns="http://www.w3.org/2000/svg" fill="none" viewBox="0 0 100 100"><path fill="#000" fill-rule="evenodd" d="M49.4 0C26.1 0 6.6 16 1.1 37.6c-.1.2-.1.3-.1.5 0 1.3 1.1 2.4 2.4 2.4h20.1c1 0 1.8-.6 2.2-1.4 4.1-9 13.2-15.3 23.8-15.3 14.4 0 26.1 11.7 26.1 26.2S63.9 76.2 49.5 76.2c-10.5 0-19.6-6.3-23.8-15.3-.4-.8-1.2-1.4-2.2-1.4H3.4c-1.3 0-2.4 1.1-2.4 2.4 0 .2 0 .3.1.5C6.6 84 26.1 100 49.4 100c27.6 0 49.9-22.4 49.9-50S77 0 49.4 0M37.5 50c0-6.6 5.3-11.9 11.9-11.9S61.3 43.4 61.3 50 56 61.9 49.4 61.9 37.5 56.6 37.5 50" clip-rule="evenodd"/></svg>