<svg width="100" height="100" viewBox="0 0 100 100" fill="none" xmlns="http://www.w3.org/2000/svg">
<g id="docker" clip-path="url(#clip0_790_7802)">
<path id="Vector" d="M99 41.0999C98.7 40.8999 96.2 38.9999 90.9 38.9999C89.5 38.9999 88.1 39.0999 86.7 39.3999C85.7 32.2999 79.8 28.8999 79.5 28.6999L78.1 27.8999L77.2 29.2999C76 31.0999 75.2 33.0999 74.7 35.2999C73.7 39.2999 74.3 43.0999 76.4 46.3999C73.9 47.7999 69.9 48.0999 69.1 48.1999H3.09999C1.39999 47.9999 -8.33534e-06 49.3999 -8.33534e-06 51.0999C-0.100008 56.7999 0.899992 62.5999 2.89999 67.9999C5.19999 73.9999 8.49999 78.2999 12.9 80.9999C17.8 83.9999 25.8 85.6999 34.9 85.6999C39 85.6999 43.1 85.2999 47.1 84.5999C52.7 83.5999 58.1 81.5999 63 78.7999C67.1 76.3999 70.8 73.3999 73.9 69.8999C79.1 63.9999 82.2 57.3999 84.5 51.5999H85.4C91.1 51.5999 94.6 49.2999 96.6 47.3999C97.9 46.1999 98.9 44.6999 99.5 42.9999L99.9 41.7999L99 41.0999Z" fill="#7D7D7D"/>
<path id="Vector_2" d="M9.20002 46H18C18.4 46 18.8 45.7 18.8 45.2V37.3C18.8 36.9 18.5 36.5 18 36.5H9.20002C8.80002 36.5 8.40002 36.8 8.40002 37.3V45.2C8.50002 45.7 8.80002 46 9.20002 46Z" fill="#7D7D7D"/>
<path id="Vector_3" d="M21.4 46H30.2C30.6 46 31 45.7 31 45.2V37.3C31 36.9 30.7 36.5 30.2 36.5H21.4C21 36.5 20.6 36.8 20.6 37.3V45.2C20.6 45.7 21 46 21.4 46Z" fill="#7D7D7D"/>
<path id="Vector_4" d="M33.7 46H42.5C42.9 46 43.3 45.7 43.3 45.2V37.3C43.3 36.9 43 36.5 42.5 36.5H33.7C33.3 36.5 32.9 36.8 32.9 37.3V45.2C33 45.7 33.3 46 33.7 46Z" fill="#7D7D7D"/>
<path id="Vector_5" d="M46 46H54.8C55.2 46 55.6 45.7 55.6 45.2V37.3C55.6 36.9 55.3 36.5 54.8 36.5H46C45.6 36.5 45.2 36.8 45.2 37.3V45.2C45.2 45.7 45.5 46 46 46Z" fill="#7D7D7D"/>
<path id="Vector_6" d="M21.4 34.7002H30.2C30.6 34.7002 31 34.4002 31 33.9002V26.0002C31 25.6002 30.7 25.2002 30.2 25.2002H21.4C21 25.2002 20.6 25.5002 20.6 26.0002V33.9002C20.6 34.4002 21 34.7002 21.4 34.7002Z" fill="#7D7D7D"/>
<path id="Vector_7" d="M33.7 34.7002H42.5C42.9 34.7002 43.3 34.4002 43.3 33.9002V26.0002C43.3 25.6002 43 25.2002 42.5 25.2002H33.7C33.3 25.2002 32.9 25.5002 32.9 26.0002V33.9002C33 34.4002 33.3 34.7002 33.7 34.7002Z" fill="#7D7D7D"/>
<path id="Vector_8" d="M46 34.7002H54.8C55.2 34.7002 55.6 34.4002 55.6 33.9002V26.0002C55.6 25.6002 55.3 25.2002 54.8 25.2002H46C45.6 25.2002 45.2 25.5002 45.2 26.0002V33.9002C45.2 34.4002 45.5 34.7002 46 34.7002Z" fill="#7D7D7D"/>
<path id="Vector_9" d="M46 23.3999H54.8C55.2 23.3999 55.6 23.0999 55.6 22.5999V14.6999C55.6 14.2999 55.3 13.8999 54.8 13.8999H46C45.6 13.8999 45.2 14.1999 45.2 14.6999V22.5999C45.2 23.0999 45.5 23.3999 46 23.3999Z" fill="#7D7D7D"/>
<path id="Vector_10" d="M58.3 46H67.1C67.5 46 67.9 45.7 67.9 45.2V37.3C67.9 36.9 67.6 36.5 67.1 36.5H58.3C57.9 36.5 57.5 36.8 57.5 37.3V45.2C57.5 45.7 57.8 46 58.3 46Z" fill="#7D7D7D"/>
</g>
<defs>
<clipPath id="clip0_790_7802">
<rect width="100" height="100" fill="white"/>
</clipPath>
</defs>
</svg>
