<svg width="100" height="100" viewBox="0 0 100 100" fill="none" xmlns="http://www.w3.org/2000/svg">
<g id="graphql">
<path id="Vector" fill-rule="evenodd" clip-rule="evenodd" d="M59 11.4L79.5 23.3C80.1 22.7 80.8 22.1 81.5 21.7C85.8 19.3 91.2 20.7 93.7 25C96.1 29.3 94.7 34.7 90.4 37.2C89.7 37.6 88.9 37.9 88 38.1V61.8C88.8 62 89.6 62.3 90.3 62.7C94.6 65.2 96 70.6 93.6 74.9C91.2 79.2 85.7 80.6 81.4 78.2C80.6 77.7 79.8 77.1 79.2 76.4L58.9 88.2C59.2 89.1 59.4 90.1 59.3 91C59.3 95.9 55.3 99.9 50.4 99.9C45.5 99.9 41.5 95.9 41.5 91C41.5 90.1 41.6 89.3 41.9 88.5L21.4 76.6C20.8 77.2 20.1 77.7 19.4 78.2C15.1 80.6 9.70003 79.2 7.20003 74.9C4.80003 70.6 6.20003 65.2 10.5 62.7C11.2 62.3 12 62 12.8 61.8V38.1C12 37.9 11.2 37.6 10.4 37.2C6.20003 34.7 4.70003 29.2 7.20003 25C9.60003 20.7 15.1 19.3 19.4 21.7C20.1 22.1 20.8 22.7 21.4 23.3L41.9 11.4C41.7 10.6 41.5 9.7 41.5 8.9C41.5 4 45.5 0 50.4 0C55.3 0 59.3 4 59.3 8.9C59.3 9.8 59.2 10.6 59 11.4ZM56.8 15.1L77.4 27C77.1 28.1 77 29.3 77.1 30.5C77.2 31.7 77.6 32.8 78.2 33.9C79.5 36.1 81.5 37.5 83.8 38.1V61.9C83.7 61.9 83.6 62 83.5 62L56.6 15.3C56.7 15.3 56.8 15.2 56.8 15.1ZM44.3 15.3L17.4 61.9C17.3 61.9 17.2 61.8 17 61.8V38.1C19.3 37.5 21.3 36.1 22.6 33.9C23.2 32.9 23.6 31.7 23.7 30.5C23.8 29.3 23.7 28.1 23.4 27L44 15.1C44.1 15.2 44.2 15.3 44.3 15.3ZM52.9 17.5L79.8 64C79.2 64.6 78.7 65.3 78.2 66C77.8 66.7 77.5 67.5 77.3 68.3H23.6C23.4 67.5 23.1 66.7 22.7 66C22.3 65.3 21.7 64.6 21.1 64L48 17.5C48.8 17.7 49.6 17.8 50.5 17.8C51.3 17.8 52.1 17.7 52.9 17.5ZM57 85L77.5 73.2C77.4 73 77.4 72.8 77.3 72.6H23.6C23.6 72.7 23.5 72.8 23.5 72.9L44 84.8C44.8 83.9 45.8 83.3 46.9 82.8C48 82.3 49.2 82.1 50.4 82.1C51.6 82.1 52.9 82.4 54 82.9C55.2 83.3 56.2 84.1 57 85Z" fill="#777777"/>
</g>
</svg>
