<svg width="100" height="100" viewBox="0 0 100 100" fill="none" xmlns="http://www.w3.org/2000/svg">
<g id="java" clip-path="url(#clip0_790_8248)">
<path id="Vector" d="M36.8001 77.2999C36.8001 77.2999 33.0001 79.4999 39.5001 80.2999C47.4001 81.1999 51.5001 81.0999 60.2001 79.3999C60.2001 79.3999 62.5001 80.7999 65.7001 82.0999C46.1001 90.4999 21.4001 81.5999 36.8001 77.2999ZM34.4001 66.3999C34.4001 66.3999 30.1001 69.5999 36.7001 70.1999C45.2001 71.0999 51.8001 71.0999 63.4001 68.8999C63.4001 68.8999 65.0001 70.4999 67.5001 71.3999C43.8001 78.3999 17.4001 71.9999 34.4001 66.3999Z" fill="#777777"/>
<path id="Vector_2" d="M54.5001 47.7999C59.3001 53.3999 53.2001 58.3999 53.2001 58.3999C53.2001 58.3999 65.4001 52.0999 59.8001 44.1999C54.5001 36.7999 50.5001 33.0999 72.3001 20.4999C72.4001 20.3999 38.2001 28.9999 54.5001 47.7999Z" fill="#878787"/>
<path id="Vector_3" d="M80.4 85.3999C80.4 85.3999 83.2 87.6999 77.3 89.4999C66 92.8999 30.3 93.9999 20.3 89.5999C16.7 87.9999 23.4 85.8999 25.5 85.3999C27.7 84.8999 28.9 84.9999 28.9 84.9999C24.9 82.1999 3.29999 90.4999 17.9 92.8999C57.9 99.4999 90.8 90.0999 80.4 85.3999ZM38.6 54.9999C38.6 54.9999 20.4 59.2999 32.2 60.8999C37.2 61.5999 47 61.3999 56.2 60.5999C63.7 59.9999 71.3 58.5999 71.3 58.5999C71.3 58.5999 68.6 59.6999 66.7 60.9999C48.2 65.8999 12.6 63.5999 22.9 58.5999C31.5 54.5999 38.6 54.9999 38.6 54.9999ZM71.2 73.2999C90 63.5999 81.3 54.1999 75.2 55.3999C73.7 55.6999 73.1 55.9999 73.1 55.9999C73.1 55.9999 73.7 55.0999 74.7 54.7999C86.7 50.5999 95.9 67.1999 70.8 73.7999C70.8 73.7999 71.1 73.4999 71.2 73.2999Z" fill="#777777"/>
<path id="Vector_4" d="M59.9 0C59.9 0 70.3 10.4 50 26.4C33.8 39.2 46.3 46.5 50 54.9C40.5 46.4 33.6 38.8 38.2 31.8C45.1 21.5 64.1 16.5 59.9 0Z" fill="#878787"/>
<path id="Vector_5" d="M40.4 99.7C58.4 100.9 86.0999 99.1 86.6999 90.5C86.6999 90.5 85.4 93.7 71.8 96.3C56.4 99.2 37.5 98.9 26.2 97C26.3 97 28.6 98.9 40.4 99.7Z" fill="#777777"/>
</g>
<defs>
<clipPath id="clip0_790_8248">
<rect width="100" height="100" fill="white"/>
</clipPath>
</defs>
</svg>
