<svg width="100" height="100" viewBox="0 0 100 100" fill="none" xmlns="http://www.w3.org/2000/svg">
<g id="mysql" clip-path="url(#clip0_790_10111)">
<path id="Vector" d="M92.1 77.0999C86.7 76.9999 82.4 77.4999 78.9 78.9999C77.9 79.3999 76.2 79.3999 76.1 80.6999C76.6 81.2999 76.7 82.1999 77.2 82.8999C78 84.2999 79.4 86.0999 80.7 87.0999C82.1 88.1999 83.6 89.2999 85.1 90.2999C87.8 91.9999 90.7 92.8999 93.3 94.5999C94.8 95.5999 96.3 96.7999 97.8 97.7999C98.5 98.3999 99 99.1999 100 99.5999V99.3999C99.5 98.7999 99.4 97.8999 98.9 97.1999C98.2 96.4999 97.5 95.8999 96.9 95.1999C94.9 92.4999 92.5 90.1999 89.8 88.1999C87.6 86.6999 82.9 84.5999 82 82.0999L81.9 81.9999C83.4 81.8999 85.2 81.2999 86.6 80.8999C88.9 80.2999 91 80.3999 93.4 79.7999C94.5 79.4999 95.6 79.1999 96.7 78.7999V78.1999C95.5 76.9999 94.6 75.2999 93.3 74.0999C89.8 71.0999 86 68.0999 82.1 65.5999C80 64.1999 77.3 63.2999 75 62.0999C74.2 61.6999 72.8 61.4999 72.3 60.7999C71.1 59.2999 70.4 57.2999 69.5 55.4999C67.5 51.6999 65.6 47.4999 63.9 43.4999C62.7 40.7999 61.9 38.0999 60.4 35.5999C53.4 23.8999 45.8 16.7999 34.1 9.79991C31.6 8.39991 28.6 7.69991 25.4 6.99991C23.7 6.89991 22 6.79991 20.3 6.69991C19.2 6.19991 18.1 4.89991 17.2 4.29991C13.3 1.79991 3.29996 -3.60009 0.399958 3.49991C-1.40004 7.99991 3.09996 12.3999 4.69996 14.6999C5.89996 16.2999 7.39996 18.0999 8.19996 19.8999C8.69996 21.0999 8.79996 22.2999 9.29996 23.5999C10.4 26.5999 11.4 29.9999 12.8 32.8999C13.5 34.2999 14.4 35.8999 15.3 37.1999C15.8 37.9999 16.8 38.2999 17 39.4999C16 40.8999 16 42.9999 15.4 44.6999C13 52.4999 13.9 62.1999 17.4 67.8999C18.5 69.5999 21.1 73.3999 24.5 71.9999C27.6 70.7999 26.9 66.7999 27.8 63.3999C28 62.5999 27.9 61.9999 28.3 61.4999V61.5999C29.3 63.4999 30.2 65.3999 31.1 67.2999C33.2 70.6999 36.9 74.1999 39.9 76.5999C41.5 77.7999 42.8 79.9999 44.9 80.6999V80.4999H44.8C44.4 79.8999 43.8 79.5999 43.2 79.0999C42 77.8999 40.6 76.2999 39.7 74.9999C36.8 71.0999 34.3 66.8999 32.1 62.3999C31 60.2999 30.1 57.8999 29.2 55.7999C28.8 54.9999 28.8 53.6999 28.1 53.2999C27.1 54.7999 25.6 56.0999 24.8 57.9999C23.5 60.9999 23.4 64.5999 22.9 68.3999C22.6 68.4999 22.8 68.3999 22.6 68.4999C20.4 67.8999 19.7 65.6999 18.9 63.6999C16.9 58.7999 16.5 50.8999 18.3 45.2999C18.8 43.7999 20.8 39.2999 20 37.8999C19.6 36.5999 18.2 35.7999 17.5 34.7999C16.6 33.4999 15.7 31.7999 15.1 30.3999C13.5 26.4999 12.7 22.2999 10.9 18.3999C9.99996 16.4999 8.49996 14.6999 7.39996 12.9999C6.09996 11.0999 4.69996 9.79991 3.69996 7.59991C3.39996 6.79991 2.89996 5.59991 3.39996 4.79991C3.49996 4.19991 3.79996 3.99991 4.39996 3.89991C5.29996 3.09991 7.79996 4.09991 8.69996 4.49991C11.2 5.49991 13.3 6.49991 15.4 7.99991C16.4 8.69991 17.4 9.99991 18.6 10.2999H20C22.2 10.7999 24.6 10.3999 26.7 11.0999C30.3 12.2999 33.6 13.9999 36.5 15.8999C45.4 21.5999 52.8 29.7999 57.7 39.4999C58.5 41.0999 58.9 42.4999 59.6 44.1999C61 47.5999 62.8 50.9999 64.2 54.2999C65.6 57.4999 67 60.8999 69 63.5999C70 64.9999 74.1 65.7999 75.9 66.5999C77.3 67.1999 79.4 67.7999 80.6 68.4999C82.9 69.8999 85.2 71.5999 87.4 73.1999C88.5 73.9999 91.9 75.6999 92.1 77.0999Z" fill="#3D3D3D"/>
<path id="Vector_2" d="M22.7 17.1001C21.5 17.1001 20.7 17.2001 19.9 17.4001V17.5001H20C20.5 18.6001 21.5 19.4001 22.2 20.3001C22.7 21.4001 23.2 22.5001 23.8 23.6001C23.9 23.5001 23.9 23.5001 23.9 23.5001C24.9 22.8001 25.3 21.7001 25.3 20.0001C24.9 19.5001 24.8 19.0001 24.5 18.6001C24.2 18.0001 23.3 17.6001 22.7 17.1001Z" fill="#3D3D3D"/>
</g>
<defs>
<clipPath id="clip0_790_10111">
<rect width="100" height="100" fill="white"/>
</clipPath>
</defs>
</svg>
