<svg width="100" height="100" viewBox="0 0 100 100" fill="none" xmlns="http://www.w3.org/2000/svg">
<g id="nestjs" clip-path="url(#clip0_790_10119)">
<path id="Vector" fill-rule="evenodd" clip-rule="evenodd" d="M58.9 0C58.2 0 57.5 0.2 56.9 0.4C58.2 1.3 58.9 2.4 59.3 3.8C59.3 4 59.4 4.1 59.4 4.3C59.4 4.5 59.5 4.6 59.5 4.8C59.6 7.1 58.9 7.4 58.4 8.7C57.7 10.4 57.9 12.3 58.8 13.8C58.9 14 59 14.2 59.1 14.4C58.1 7.9 63.6 6.9 64.6 4.8C64.7 3 63.2 1.8 62 1C60.8 0.2 59.8 0 58.9 0ZM67.1 1.5C67 2.1 67.1 1.9 67 2.2C67 2.4 67 2.7 66.9 2.9C66.8 3.1 66.8 3.3 66.7 3.5C66.6 3.7 66.6 3.9 66.5 4.1C66.4 4.3 66.3 4.5 66.2 4.7C66.1 4.8 66.1 4.9 66 5C66.1 5.1 66 5.2 66 5.3C65.9 5.5 65.7 5.7 65.6 5.8C65.4 6 65.3 6.1 65.1 6.3C64.9 6.4 64.8 6.6 64.6 6.7C64.1 7.1 63.4 7.4 62.9 7.8C62.7 7.9 62.5 8 62.4 8.2C62.2 8.3 62.1 8.5 61.9 8.6C61.7 8.8 61.6 8.9 61.4 9.1C61.3 9.3 61.1 9.4 61 9.6C60.9 9.8 60.7 10 60.6 10.1C60.5 10.3 60.4 10.5 60.3 10.7C60.2 10.9 60.1 11.1 60.1 11.3C60.1 11.6 60 11.8 60 12C60 12.1 60 12.2 59.9 12.3C59.9 12.4 59.9 12.5 59.8 12.6C59.8 12.8 59.8 13 59.8 13.2C59.8 13.4 59.8 13.5 59.8 13.7C59.8 13.9 59.8 14.1 59.9 14.3C59.9 14.5 60 14.7 60 14.9C60.1 15.1 60.1 15.3 60.2 15.5C60.3 15.6 60.3 15.8 60.4 15.9L54.5 13.6C53.5 13.3 52.5 13.1 51.5 12.8C51 12.7 50.4 12.5 49.9 12.4C48.4 12.1 46.8 11.9 45.2 11.7C45.1 11.7 45.1 11.7 45.1 11.7C43.6 11.5 42 11.5 40.5 11.5C39.4 11.5 38.2 11.6 37.1 11.6C35.5 11.7 33.9 11.9 32.4 12.2C32 12.3 31.6 12.3 31.2 12.4C30.4 12.6 29.6 12.7 28.9 12.9C28.5 13 28.1 13.1 27.7 13.2C27.3 13.4 27 13.5 26.6 13.7C26.3 13.8 26 14 25.7 14.1C25.6 14.1 25.6 14.1 25.6 14.2C25.3 14.3 25.1 14.4 24.9 14.6C24.8 14.6 24.8 14.7 24.7 14.7C24.4 14.8 24.1 15 23.9 15.1C23.7 15.2 23.5 15.3 23.4 15.4C23.3 15.5 23.2 15.5 23.2 15.5C23 15.6 22.7 15.8 22.5 15.9C22.3 16 22.1 16.2 21.9 16.3C21.7 16.4 21.5 16.5 21.4 16.7C21.4 16.7 21.3 16.7 21.3 16.8C21.1 16.9 21 17 20.8 17.2C20.8 17.2 20.8 17.2 20.7 17.3C20.6 17.4 20.4 17.5 20.3 17.6C20.2 17.6 20.2 17.7 20.1 17.7C20 17.8 19.8 17.9 19.7 18C19.7 18.1 19.6 18.1 19.6 18.1C19.4 18.3 19.3 18.4 19.1 18.5C19.1 18.5 19.1 18.5 19 18.6C18.8 18.7 18.7 18.9 18.5 19C18.5 19 18.5 19.1 18.4 19.1C18.3 19.2 18.1 19.4 18 19.5C17.9 19.6 17.9 19.6 17.8 19.7C17.7 19.9 17.5 20 17.4 20.2C17.4 20.3 17.3 20.3 17.3 20.3C17.1 20.5 16.9 20.7 16.7 20.9L16.6 21C16.2 21.4 15.7 21.9 15.3 22.3C14.8 22.7 14.3 23.1 13.9 23.4C13.4 23.8 12.9 24.1 12.4 24.4C11.9 24.7 11.3 24.9 10.8 25.2C10.3 25.4 9.7 25.6 9.1 25.8C8 26 6.9 26.5 5.9 26.5C5.7 26.5 5.5 26.6 5.3 26.6C5.1 26.7 4.9 26.7 4.7 26.8C4.5 26.9 4.3 27 4.1 27C4 26.8 3.8 26.9 3.6 27C3.4 27.1 3.2 27.2 3 27.4C2.8 27.5 2.6 27.7 2.5 27.8C2.3 28 2.1 28.1 2 28.3C1.8 28.5 1.7 28.6 1.6 28.8C1.5 29 1.3 29.2 1.2 29.4C1 29.6 0.9 29.8 0.8 30C0.7 30.2 0.6 30.4 0.5 30.7C0.4 30.9 0.3 31.1 0.3 31.4C0.2 31.6 0.2 31.8 0.2 32V32.1C0.1 32.3 0.1 32.6 0.1 32.8C0 32.9 0 33.1 0 33.3C0 33.4 0 33.5 0 33.6C0 33.8 0.1 33.9 0.1 34.1C0.2 34.3 0.2 34.4 0.3 34.6C0.4 34.8 0.5 34.9 0.6 35.1C0.7 35.3 0.8 35.4 0.9 35.6C1 35.7 1.2 35.9 1.3 36C1.5 36.2 1.6 36.3 1.8 36.4C2.4 36.9 2.6 37.1 3.4 37.5C3.5 37.6 3.7 37.6 3.8 37.7H3.9C3.9 37.8 3.9 37.8 3.9 37.8C4 38 4 38.2 4.1 38.5C4.2 38.7 4.2 38.9 4.3 39.1C4.4 39.3 4.4 39.4 4.5 39.6C4.5 39.7 4.6 39.7 4.6 39.7C4.7 39.9 4.8 40.1 4.9 40.3C5 40.5 5.2 40.7 5.3 40.8C5.4 41 5.6 41.1 5.7 41.3C5.9 41.5 6 41.6 6.2 41.7C6.2 41.7 6.2 41.7 6.3 41.7C6.5 41.8 6.6 42 6.8 42.1C7 42.2 7.2 42.3 7.4 42.4C7.6 42.5 7.8 42.6 8 42.7C8.2 42.8 8.3 42.8 8.5 42.9C8.5 42.9 8.6 42.9 8.6 43C8.6 43 8.7 43 8.8 43C8.7 44.4 8.7 45.7 8.9 46.2C9.1 46.7 10.3 45.1 11.4 43.3C11.2 45.1 11.1 47.2 11.4 47.8C11.7 48.4 13.2 46.4 14.6 44.2C32.9 40 49.6 52.6 51.4 70.5C51.1 67.7 47.6 66.2 46.1 66.5C45.3 68.4 44 70.9 41.9 72.4C42.1 70.7 42 68.9 41.6 67.2C41 69.6 39.9 71.8 38.4 73.7C35.9 73.9 33.5 72.7 32.2 70.9C32.1 70.8 32.1 70.7 32 70.6C31.9 70.4 31.8 70.2 31.8 70.1C31.7 69.9 31.7 69.7 31.6 69.6C31.6 69.4 31.6 69.2 31.6 69C31.6 68.9 31.6 68.7 31.6 68.6C31.6 68.4 31.7 68.2 31.7 68.1C31.8 67.9 31.8 67.7 31.9 67.6C32 67.4 32.1 67.2 32.2 67.1C32.6 65.9 32.6 64.9 31.8 64.3C31.6 64.2 31.5 64.1 31.3 64C31.2 64 31.1 63.9 31 63.9C30.9 63.9 30.9 63.8 30.8 63.8C30.6 63.7 30.4 63.7 30.3 63.7C30.1 63.6 29.9 63.6 29.8 63.6C29.6 63.6 29.4 63.5 29.2 63.5C29.1 63.5 28.9 63.5 28.8 63.5C28.6 63.5 28.4 63.5 28.2 63.6C28 63.6 27.8 63.7 27.7 63.7C27.5 63.8 27.3 63.8 27.2 63.9C27 64 26.9 64.1 26.7 64.1C26.5 64.2 26.4 64.3 26.2 64.4C20.2 68.3 23.8 77.5 27.9 80.2C26.4 80.5 24.8 80.8 24.3 81.2L24.2 81.3C25.3 82 26.5 82.5 27.7 83C29.4 83.5 31.1 84 31.9 84.2C34 84.6 36.2 84.8 38.4 84.7C49.8 83.9 59.2 75.2 60.9 63.7C61 63.9 61 64.1 61.1 64.4C61.2 64.9 61.3 65.4 61.3 65.8C61.4 66 61.4 66.3 61.4 66.5V66.6C61.4 66.8 61.5 67.1 61.5 67.3C61.5 67.6 61.6 67.9 61.6 68.2V68.6C61.6 68.7 61.6 68.9 61.6 69C61.6 69.2 61.6 69.3 61.6 69.5V69.9C61.6 70.1 61.6 70.2 61.6 70.4C61.6 70.5 61.6 70.6 61.6 70.7C61.6 70.9 61.6 71.1 61.6 71.3C61.6 71.4 61.6 71.5 61.6 71.5C61.6 71.7 61.5 71.9 61.5 72.1C61.5 72.2 61.5 72.3 61.5 72.3C61.5 72.6 61.4 72.8 61.4 73C61.3 73.2 61.3 73.5 61.2 73.7V73.8C61.1 74 61.1 74.3 61 74.5V74.6C60.9 74.8 60.9 75.1 60.8 75.3V75.4C60.7 75.7 60.6 75.9 60.6 76.1V76.2C60.5 76.5 60.4 76.7 60.4 77C60.3 77.3 60.2 77.5 60.1 77.7C60 78 59.9 78.2 59.8 78.4C59.7 78.7 59.6 78.9 59.5 79.1C59.4 79.3 59.3 79.6 59.2 79.8C59.2 79.9 59.1 79.9 59.1 80C59.1 80 59.1 80.1 59 80.1C57.3 83.5 54.8 86.5 51.7 88.8C51.5 88.9 51.3 89.1 51.1 89.2C51 89.3 51 89.3 50.9 89.3C50.7 89.4 50.5 89.6 50.3 89.7L50.4 89.9C50.8 89.8 51.1 89.8 51.5 89.7C52.2 89.6 52.8 89.5 53.5 89.3C53.7 89.3 53.9 89.2 54.1 89.2C54.2 89.2 54.3 89.1 54.5 89.1C54.7 89.1 54.9 89 55 89C55.2 88.9 55.3 88.9 55.5 88.9C58.1 88.3 60.6 87.4 63 86.4C58.9 92 53.4 96.5 47 99.5C50 99.3 52.9 98.8 55.8 98C66 95 74.8 88 80 78.6C78.9 84.6 76.6 90.2 73.1 95.2C75.6 93.5 77.9 91.6 80 89.5C85.8 83.5 89.6 75.8 90.9 67.5C91.8 71.6 92 75.8 91.6 79.9C110.2 53.9 93.1 26.9 86 19.8C86 19.7 85.9 19.7 85.9 19.7C85.9 19.7 85.9 19.7 85.9 19.8C85.9 19.8 85.9 19.8 85.9 19.7C85.9 20 85.9 20.3 85.8 20.6C85.7 21.2 85.6 21.8 85.5 22.3C85.4 22.9 85.2 23.4 85.1 24C84.9 24.5 84.7 25.1 84.5 25.7C84.3 26.2 84 26.8 83.7 27.3C83.4 27.8 83.1 28.3 82.8 28.8C82.5 29.3 82.1 29.8 81.7 30.2C81.3 30.7 80.9 31.1 80.5 31.5C80.2 31.7 80 31.9 79.8 32.1C79.6 32.3 79.4 32.4 79.2 32.6C78.7 33 78.3 33.3 77.8 33.6C77.3 33.9 76.8 34.2 76.3 34.5C75.8 34.8 75.2 35 74.7 35.2C74.2 35.4 73.6 35.6 73 35.7C72.4 35.9 71.8 36 71.3 36.1C70.7 36.2 70.1 36.3 69.5 36.3C69.1 36.3 68.7 36.4 68.3 36.4C67.7 36.4 67.1 36.3 66.5 36.3C65.9 36.2 65.3 36.2 64.7 36C64.1 35.9 63.5 35.7 63 35.6C63.6 35.5 64.1 35.5 64.7 35.4C65.3 35.3 65.9 35.2 66.4 35C67 34.8 67.5 34.7 68.1 34.5C68.7 34.3 69.2 34 69.7 33.8C70.2 33.5 70.7 33.3 71.2 32.9C71.7 32.6 72.2 32.2 72.6 31.9C73.1 31.5 73.5 31.2 73.9 30.7C74.3 30.3 74.7 29.9 75.1 29.4C75.5 28.9 75.8 28.5 76.2 28C76.3 27.9 76.3 27.8 76.4 27.7C76.7 27.3 76.9 26.9 77.1 26.5C77.4 26 77.6 25.5 77.9 24.9C78.1 24.4 78.3 23.8 78.5 23.2C78.7 22.7 78.8 22.1 78.9 21.5C79 20.9 79.1 20.3 79.2 19.8C79.3 19.2 79.3 18.6 79.3 18C79.3 17.6 79.3 17.2 79.2 16.8C79.1 16.2 79.1 15.6 79 15.1C78.9 14.5 78.8 13.9 78.6 13.4C78.4 12.9 78.2 12.3 78 11.7C77.8 11.2 77.5 10.6 77.3 10.1C77 9.6 76.7 9.1 76.4 8.6C76.1 8.1 75.7 7.6 75.4 7.2C75 6.8 74.6 6.3 74.2 5.9C74 5.7 73.8 5.5 73.5 5.3C72.3 4.4 71.1 3.5 69.9 2.8C69.7 2.7 69.6 2.6 69.4 2.5C68.7 2 67.9 1.7 67.1 1.5Z" fill="#606060"/>
</g>
<defs>
<clipPath id="clip0_790_10119">
<rect width="100" height="100" fill="white"/>
</clipPath>
</defs>
</svg>
