<svg width="100" height="100" viewBox="0 0 100 100" fill="none" xmlns="http://www.w3.org/2000/svg">
<g id="postgresql" clip-path="url(#clip0_790_10254)">
<path id="Vector" d="M98.5 59.9C97.9 58.1 96.4 56.9 94.4 56.6C93.5 56.5 92.4 56.5 91.1 56.8C88.9 57.3 87.3 57.4 86.1 57.5C90.6 49.9 94.2 41.3 96.3 33.1C99.7 19.9 97.9 13.9 95.8 11.2C90.2 4.00002 82 0.100023 72.2 2.31937e-05C66.9 -0.0999768 62.3 1.00002 59.9 1.70002C57.7 1.30002 55.2 1.10002 52.7 1.00002C47.9 1.00002 43.7 2.00002 40.1 4.20002C38.1 3.50002 34.9 2.60002 31.3 2.00002C22.6 0.600023 15.7 1.70002 10.6 5.30002C4.39999 9.70002 1.59999 17.3 2.09999 27.9C2.29999 31.3 4.09999 41.5 7.09999 51.3C8.79999 56.9 10.6 61.5 12.5 65.1C15.2 70.2 18 73.1 21.2 74.2C23 74.8 26.2 75.2 29.7 72.4C30.1 72.9 30.7 73.5 31.5 73.9C32.5 74.5 33.7 75 34.9 75.3C39.2 76.4 43.2 76.1 46.7 74.6C46.7 75.2 46.7 75.8 46.8 76.3C46.8 77.1 46.8 77.9 46.9 78.7C47.1 83.8 47.4 87.7 48.5 90.5C48.6 90.7 48.6 90.9 48.7 91.1C49.2 92.7 50.1 95.3 52.2 97.3C54.4 99.4 57.2 100.1 59.6 100.1C60.8 100.1 62 99.9 63.1 99.7C66.8 98.9 71 97.7 74.1 93.3C77 89.2 78.4 83 78.6 73.2C78.6 72.9 78.7 72.7 78.7 72.4L78.8 71.9L79.5 72H79.7C83.5 72.2 88.1 71.4 91 70C93 68.9 100.2 65.1 98.5 59.9Z" fill="black"/>
<path id="Vector_2" d="M91.9999 60.9C80.6999 63.2 79.9999 59.4 79.9999 59.4C91.8999 41.7 96.8999 19.2 92.5999 13.7C80.8999 -1.30005 60.5999 5.79995 60.2999 5.99995H60.1999C57.9999 5.49995 55.4999 5.29995 52.6999 5.19995C47.5999 5.09995 43.6999 6.49995 40.7999 8.79995C40.7999 8.79995 4.69995 -6.10005 6.29995 27.6C6.69995 34.8 16.5999 81.9 28.3999 67.6C32.6999 62.4 36.8999 58 36.8999 58C38.9999 59.4 41.3999 60.1 43.9999 59.8L44.1999 59.6C44.0999 60.2 44.1999 60.9 44.2999 61.6C41.2999 65 42.1999 65.6 36.0999 66.9C29.9999 68.2 33.5999 70.4 35.8999 71C38.7999 71.7 45.3999 72.7 49.7999 66.5L49.5999 67.2C50.7999 68.2 51.5999 73.4 51.4999 78.2C51.3999 83 51.2999 86.3 52.1999 88.8C53.0999 91.4 54.0999 97.1 62.0999 95.4C68.7999 94 72.1999 90.2 72.6999 84C72.9999 79.6 73.7999 80.2 73.8999 76.3L74.4999 74.4C75.1999 68.4 74.5999 66.5 78.6999 67.4L79.6999 67.5C82.6999 67.6 86.6999 67 88.9999 65.9C93.9999 63.8 96.8999 59.9 91.9999 60.9Z" fill="#5C5C5C"/>
<path id="Vector_3" d="M42.8 30.8C41.8 30.7 40.9 30.8 40.4 31.1C40.1 31.3 40.1 31.5 40 31.7C39.9 32.1 40.2 32.6 40.4 32.8C40.9 33.5 41.7 33.9 42.4 34C42.5 34 42.6 34 42.7 34C43.9 34 45 33 45.1 32.3C45.4 31.6 44.1 31 42.8 30.8ZM76.4 30.9C76.3 30.2 75.1 30 73.9 30.2C72.7 30.4 71.6 30.9 71.7 31.6C71.8 32.1 72.8 33.1 73.9 33.1C74 33.1 74.1 33.1 74.2 33.1C75 33 75.5 32.5 75.8 32.2C76.3 31.6 76.5 31.2 76.4 30.9Z" fill="white"/>
<path id="Vector_4" d="M95.7 60.6C95.3 59.3 93.9 58.9 91.6 59.4C84.8 60.8 82.3 59.8 81.5 59.2C86.8 51.1 91.2 41.3 93.5 32.2C94.6 27.9 95.2 23.9 95.3 20.6C95.4 17 94.7 14.4 93.5 12.8C88.5 6.20004 81 2.80004 72 2.70004C65.8 2.60004 60.6 4.20004 59.5 4.70004C57.4 4.20004 55 3.80004 52.5 3.80004C47.8 3.70004 43.8 4.80004 40.5 7.10004C39.1 6.60004 35.3 5.30004 30.7 4.50004C22.8 3.20004 16.5 4.20004 12 7.40004C6.79998 11.2 4.29998 18 4.79998 27.5C4.99998 30.7 6.79998 40.7 9.69998 50.2C13.5 62.7 17.7 69.8 22 71.3C22.5 71.5 23.1 71.6 23.7 71.6C25.3 71.6 27.2 70.9 29.3 68.4C31.8 65.4 34.3 62.5 37 59.7C38.7 60.6 40.6 61.1 42.5 61.2C42.5 61.3 42.5 61.3 42.5 61.4C42.2 61.8 41.8 62.2 41.5 62.6C40.2 64.3 39.9 64.7 35.6 65.5C34.4 65.8 31.1 66.4 31.1 68.7C31 71.2 34.9 72.2 35.4 72.3C36.9 72.7 38.4 72.9 39.8 72.9C43.2 72.9 46.3 71.8 48.7 69.6C48.6 78.5 49 87.2 50.1 89.9C51 92.1 53.1 97.4 59.8 97.4C60.8 97.4 61.9 97.3 63.1 97C70.1 95.5 73.2 92.4 74.3 85.5C74.9 81.8 76 73.1 76.5 68.4C77.6 68.7 79 68.9 80.5 68.9C83.6 68.9 87.2 68.2 89.5 67.2C92 66.1 96.6 63.2 95.7 60.6ZM79 28.9C79 30.3 78.8 31.5 78.6 32.9C78.4 34.3 78.2 35.8 78.1 37.5C78 39.2 78.3 41 78.5 42.8C78.9 46.3 79.4 49.9 77.7 53.5C77.4 53 77.2 52.5 77 52C76.8 51.5 76.3 50.7 75.7 49.6C73.3 45.2 67.6 35 70.5 30.9C71.3 29.5 73.5 28.2 79 28.9ZM72.4 5.50004C80.5 5.70004 86.9 8.70004 91.4 14.5C94.9 18.9 91 39.2 80 56.6C79.9 56.5 79.8 56.3 79.7 56.2L79.5 56C82.4 51.3 81.8 46.6 81.3 42.4C81.1 40.7 80.9 39.1 81 37.6C81.1 36 81.3 34.6 81.5 33.3C81.8 31.7 82 30 81.9 28C82 27.8 82 27.5 81.9 27.2C81.7 25.3 79.5 19.5 75.1 14.4C72.7 11.6 69.1 8.40004 64.3 6.20004C66.3 5.80004 69.2 5.40004 72.4 5.50004ZM27.1 66.6C24.9 69.3 23.3 68.8 22.8 68.6C19.5 67.5 15.7 60.5 12.3 49.4C9.39998 39.8 7.69998 30.1 7.49998 27.4C7.09998 18.8 9.09998 12.8 13.7 9.60004C21.1 4.40004 33.1 7.50004 38 9.10004C37.9 9.20004 37.9 9.20004 37.8 9.30004C29.8 17.4 30 31.2 30 32C30 32.3 30 32.8 30.1 33.4C30.2 35.7 30.5 40 29.8 44.9C29.2 49.4 30.6 53.9 33.6 57.1C33.9 57.4 34.2 57.7 34.6 58C33.3 59.6 30.3 62.8 27.1 66.6ZM35.7 55.2C33.2 52.6 32.1 49 32.6 45.3C33.3 40.1 33.1 35.6 32.9 33.2C32.9 32.9 32.9 32.6 32.9 32.3C34.1 31.3 39.5 28.4 43.3 29.3C45.1 29.7 46.1 30.9 46.6 33C48.9 43.7 46.9 48.1 45.3 51.7C45 52.4 44.7 53.1 44.4 53.9L44.2 54.5C43.7 55.9 43.2 57.2 42.9 58.5C40.2 58.4 37.6 57.3 35.7 55.2ZM36.1 69.6C35.3 69.4 34.6 69.1 34.2 68.8C34.5 68.6 35.1 68.4 36.2 68.2C41.3 67.2 42 66.4 43.7 64.3C44.1 63.8 44.5 63.2 45.1 62.6C46 61.6 46.4 61.7 47.2 62.1C47.8 62.4 48.4 63.1 48.7 64C48.8 64.4 48.9 65.2 48.5 65.8C45 70.6 39.8 70.6 36.1 69.6ZM62.5 94.3C56.3 95.6 54.1 92.5 52.7 88.9C51.8 86.6 51.3 76 51.6 64.4C51.6 64.2 51.6 64.1 51.5 64C51.5 63.7 51.4 63.4 51.3 63.2C50.8 61.5 49.6 60.1 48.2 59.5C47.6 59.3 46.6 58.8 45.4 59.2C45.7 58.1 46.1 56.9 46.6 55.5L46.8 54.9C47 54.3 47.3 53.6 47.6 52.9C49.3 49.2 51.6 44 49.1 32.5C48.2 28.2 45 26 40.3 26.5C37.5 26.8 34.9 27.9 33.6 28.6C33.3 28.7 33.1 28.9 32.8 29C33.2 24.6 34.5 16.5 39.6 11.3C43 8.00004 47.3 6.40004 52.5 6.50004C62.8 6.70004 69.4 12 73.1 16.4C76.3 20.2 78 24 78.7 26.1C73.5 25.6 69.9 26.6 68.2 29.2C64.3 34.8 70.3 45.7 73.2 50.9C73.7 51.9 74.2 52.7 74.3 53C75.2 55.3 76.5 56.8 77.4 58C77.7 58.3 77.9 58.7 78.1 59C76.5 59.5 73.7 60.5 73.9 65.8C73.7 68.4 72.2 80.8 71.5 85.2C70.6 90.9 68.5 93 62.5 94.3ZM88.3 64.7C86.7 65.5 84 66 81.4 66.1C78.6 66.2 77.1 65.8 76.8 65.5C76.6 62.2 77.9 61.9 79.1 61.5C79.3 61.4 79.5 61.4 79.7 61.3C79.8 61.4 79.9 61.5 80.1 61.6C82.4 63.1 86.4 63.3 92.2 62.1H92.3C91.5 62.8 90.2 63.8 88.3 64.7Z" fill="white"/>
</g>
<defs>
<clipPath id="clip0_790_10254">
<rect width="100" height="100" fill="white"/>
</clipPath>
</defs>
</svg>
