<svg width="100" height="100" viewBox="0 0 100 100" fill="none" xmlns="http://www.w3.org/2000/svg">
<g id="rails" clip-path="url(#clip0_790_10418)">
<path id="Vector" d="M87 62.5999V67.1999H95.3C97 67.1999 99.9 66 100 62.5V60.7C100 57.7 97.6 56 95.3 56H91.2V53.9H99.4V49.2999H91.6C89.6 49.2999 86.9 50.9999 86.9 54.0999V55.7C86.9 58.8 89.6 60.4 91.6 60.4C97.3 60.4 90.2 60.4 95.5 60.4V62.5999H87ZM42.8 61.5C42.8 61.5 47.2 61.1 47.2 55.4C47.2 49.7 41.8 49.2 41.8 49.2H32.2V67.1999H37V62.9L41.2 67.1999H48.4L42.8 61.5ZM40.9 57.7999H37V53.7H40.9C40.9 53.7 42 54.1 42 55.7C42 57.4 40.9 57.7999 40.9 57.7999ZM59.2 49.2999H54.3C50.8 49.2999 49.6 52.5 49.6 54V67.1999H54.5V64H59.1V67.1999H63.9V54C63.9 50.1 60.4 49.2999 59.2 49.2999ZM59.1 58.9H54.5V54.5C54.5 54.5 54.5 53.5 56 53.5H57.7C59.1 53.5 59.1 54.5 59.1 54.5V58.9ZM66.1 49.2999H71.2V67.1999H66.1V49.2999ZM78.5 62.5V49.2999H73.4V67.1999H85.4V62.5999H78.5V62.5Z" fill="#3D3D3D"/>
<path id="Vector_2" d="M1.79999 67.2H21.8C21.8 67.2 18 49.8 30.6 42.7C33.4 41.4 42.1 36.4 56.5 47C57 46.6 57.4 46.3 57.4 46.3C57.4 46.3 44.2 33.2 29.5 34.7C22.2 35.3 13.1 42 7.79999 50.8C2.49999 59.7 1.79999 67.2 1.79999 67.2Z" fill="#3D3D3D"/>
<path id="Vector_3" d="M1.79999 67.2H21.8C21.8 67.2 18 49.8 30.6 42.7C33.4 41.4 42.1 36.4 56.5 47C57 46.6 57.4 46.3 57.4 46.3C57.4 46.3 44.2 33.2 29.5 34.7C22.2 35.3 13.1 42 7.79999 50.8C2.49999 59.7 1.79999 67.2 1.79999 67.2Z" fill="#3D3D3D"/>
<path id="Vector_4" d="M1.79999 67.2H21.8C21.8 67.2 18 49.8 30.6 42.7C33.4 41.4 42.1 36.4 56.5 47C57 46.6 57.4 46.3 57.4 46.3C57.4 46.3 44.2 33.2 29.5 34.7C22.2 35.3 13.1 42 7.79999 50.8C2.49999 59.7 1.79999 67.2 1.79999 67.2ZM43.3 36.1L43.4 34.4C43.2 34.3 42.5 34 40.9 33.5L40.8 35.2C41.7 35.4 42.5 35.7 43.3 36.1Z" fill="#3D3D3D"/>
<path id="Vector_5" d="M40.9 41.4L40.8 43C41.6 43 42.5 43.1 43.3 43.3L43.4 41.7C42.6 41.6 41.8 41.5 40.9 41.4ZM31.6 33.5H31.9L31.3 32C30.5 32 29.7 32.1 28.9 32.2L29.4 33.7C30.1 33.6 30.9 33.5 31.6 33.5ZM32.8 42.8L33.4 44.5C34.1 44.1 34.9 43.8 35.6 43.6L35 42C34.2 42.3 33.4 42.6 32.8 42.8ZM21.3 36.2L20.2 34.5C19.6 34.8 18.9 35.2 18.2 35.6L19.4 37.4C20.1 36.9 20.7 36.5 21.3 36.2ZM26.5 47.6L27.7 49.4C28.1 48.8 28.6 48.2 29.2 47.6L28.1 45.9C27.5 46.4 27 47 26.5 47.6ZM22.9 55.7L24.9 57.3C25 56.3 25.2 55.3 25.4 54.3L23.6 52.9C23.3 53.8 23.1 54.8 22.9 55.7ZM11.8 43.7L10 42.1C9.3 42.7 8.7 43.4 8.1 44L10 45.7C10.6 45 11.2 44.3 11.8 43.7ZM4.2 55L1.3 53.9C0.8 55 0.3 56.2 0 56.9L2.9 58C3.2 57.2 3.8 55.9 4.2 55ZM22.5 62.1C22.6 63.4 22.7 64.5 22.8 65.3L25.8 66.4C25.6 65.4 25.3 64.3 25.2 63.1L22.5 62.1Z" fill="#3D3D3D"/>
</g>
<defs>
<clipPath id="clip0_790_10418">
<rect width="100" height="100" fill="white"/>
</clipPath>
</defs>
</svg>
