<svg width="100" height="100" viewBox="0 0 100 100" fill="none" xmlns="http://www.w3.org/2000/svg">
<g id="sveltejs" clip-path="url(#clip0_790_10613)">
<path id="Vector" d="M86.0001 13.1999C76.7001 -0.100074 58.3001 -4.00007 45.0001 4.49993L21.7001 19.2999C20.1001 20.2999 18.7001 21.3999 17.3001 22.6999C16.0001 23.9999 14.8001 25.3999 13.7001 26.8999C12.6001 28.3999 11.8001 30.0999 11.1001 31.7999C10.4001 33.4999 9.90012 35.2999 9.60012 37.0999C9.30012 38.5999 9.20012 40.1999 9.20012 41.6999C9.20012 43.2999 9.30012 44.7999 9.50012 46.2999C9.70012 47.7999 10.1001 49.2999 10.6001 50.7999C11.1001 52.2999 11.7001 53.6999 12.4001 55.0999C11.9001 55.8999 11.4001 56.5999 11.0001 57.3999C10.6001 58.1999 10.2001 58.9999 9.90012 59.8999C9.60012 60.6999 9.30012 61.5999 9.00012 62.4999C8.80012 63.3999 8.50012 64.1999 8.40012 65.0999C7.80012 68.9999 7.90012 72.7999 8.70012 76.4999C9.10012 78.2999 9.70012 80.0999 10.5001 81.8999C11.3001 83.5999 12.2001 85.2999 13.3001 86.7999C22.6001 100.1 40.9001 104 54.2001 95.5999L77.5001 80.7999C79.1001 79.7999 80.5001 78.6999 81.9001 77.3999C83.2001 76.0999 84.4001 74.6999 85.5001 73.1999C86.5001 71.6999 87.4001 69.9999 88.1001 68.2999C88.8001 66.5999 89.3001 64.7999 89.7001 62.9999C90.0001 61.4999 90.1001 59.8999 90.1001 58.3999C90.1001 56.7999 90.0001 55.2999 89.8001 53.7999C89.6001 52.2999 89.2001 50.7999 88.7001 49.2999C88.2001 47.7999 87.6001 46.3999 86.9001 44.9999C87.4001 44.1999 87.9001 43.4999 88.3001 42.6999C88.7001 41.8999 89.1001 41.0999 89.4001 40.1999C89.7001 39.3999 90.0001 38.4999 90.3001 37.5999C90.5001 36.6999 90.8001 35.8999 90.9001 34.9999C91.2001 33.0999 91.4001 31.1999 91.3001 29.3999C91.3001 27.4999 91.0001 25.5999 90.6001 23.7999C90.2001 21.9999 89.6001 20.1999 88.8001 18.3999C88.0001 16.4999 87.1001 14.7999 86.0001 13.1999Z" fill="#717171"/>
<path id="Vector_2" d="M42.7999 88.1001C40.9999 88.6001 39.1 88.8001 37.2 88.7001C35.3 88.6001 33.5 88.2001 31.7 87.6001C29.9 86.9001 28.2999 86.0001 26.7999 84.9001C25.2999 83.7001 24 82.4001 22.9 80.8001C22.2 79.9001 21.7 78.9001 21.2 77.8001C20.7 76.8001 20.4 75.7001 20.1 74.6001C19.9 73.5001 19.7 72.4001 19.7 71.2001C19.7 70.1001 19.8 68.9001 20 67.8001C20 67.6001 20.1 67.4001 20.1 67.3001C20.1 67.1001 20.2 66.9001 20.2 66.8001C20.2 66.6001 20.2999 66.4001 20.2999 66.3001C20.3999 66.1001 20.4 65.9001 20.5 65.8001L20.9 64.5001L22.1 65.4001C22.8 65.9001 23.5 66.4001 24.2 66.8001C24.9 67.2001 25.7 67.7001 26.4 68.0001C27.2 68.4001 27.9 68.7001 28.7 69.0001C29.5 69.3001 30.3 69.6001 31.1 69.8001L32 70.1001L31.9 71.0001C31.9 71.6001 31.8999 72.2001 32.0999 72.8001C32.1999 73.1001 32.3 73.4001 32.4 73.7001C32.5 74.0001 32.7 74.2001 32.9 74.5001C33.2 75.0001 33.5999 75.4001 34.0999 75.7001C34.4999 76.0001 34.9999 76.3001 35.5999 76.5001C36.1999 76.7001 36.6999 76.8001 37.2999 76.8001C37.8999 76.8001 38.4 76.8001 39 76.6001C39.1 76.6001 39.3 76.5001 39.4 76.5001C39.5 76.5001 39.5999 76.4001 39.7999 76.4001C39.8999 76.3001 40 76.3001 40.2 76.2001C40.3 76.1001 40.4 76.1001 40.5 76.0001L63.7 61.0001C64 60.8001 64.3 60.6001 64.5 60.4001C64.7 60.2001 64.9999 59.9001 65.0999 59.6001C65.2999 59.3001 65.3999 59.0001 65.5999 58.7001C65.6999 58.4001 65.8 58.1001 65.9 57.7001C66 57.4001 66 57.0001 66 56.7001C66 56.4001 65.9 56.0001 65.9 55.7001C65.8 55.4001 65.6999 55.0001 65.5999 54.7001C65.4999 54.4001 65.2999 54.1001 65.0999 53.8001C64.7999 53.3001 64.4 52.9001 63.9 52.6001C63.5 52.3001 63 52.0001 62.4 51.8001C61.9 51.6001 61.3 51.5001 60.7 51.5001C60.1 51.5001 59.6 51.5001 59 51.7001C58.9 51.7001 58.6999 51.8001 58.5999 51.8001C58.4999 51.8001 58.4 51.9001 58.2 51.9001C58.1 52.0001 57.9999 52.0001 57.7999 52.1001C57.6999 52.2001 57.6 52.2001 57.5 52.3001L48.5999 58.0001C48.1999 58.2001 47.9 58.4001 47.5 58.7001C47.1 58.9001 46.6999 59.1001 46.2999 59.3001C45.8999 59.5001 45.4999 59.6001 45.0999 59.8001C44.6999 59.9001 44.3 60.1001 43.9 60.2001C42.1 60.7001 40.1999 60.9001 38.2999 60.8001C36.3999 60.7001 34.5999 60.3001 32.7999 59.7001C30.9999 59.0001 29.4 58.1001 27.9 57.0001C26.4 55.8001 25.1 54.5001 24 52.9001C23.3 52.0001 22.7999 51.0001 22.2999 49.9001C21.7999 48.9001 21.5 47.8001 21.2 46.7001C21 45.6001 20.7999 44.5001 20.7999 43.3001C20.7999 42.2001 20.9 41.0001 21.1 39.9001C21.5 37.7001 22.3 35.6001 23.6 33.7001C24.9 31.8001 26.5 30.3001 28.4 29.1001L51.7 14.3001C52.1 14.1001 52.3999 13.9001 52.7999 13.6001C53.1999 13.4001 53.6 13.2001 54 13.0001C54.4 12.8001 54.8 12.7001 55.2 12.5001C55.6 12.4001 56 12.2001 56.4 12.1001C58.2 11.6001 60.1 11.4001 62 11.5001C63.9 11.6001 65.7 12.0001 67.5 12.6001C69.3 13.3001 70.9 14.2001 72.4 15.3001C73.9 16.5001 75.2 17.8001 76.3 19.4001C77 20.3001 77.5 21.3001 78 22.4001C78.5 23.4001 78.7999 24.5001 79.0999 25.6001C79.3999 26.7001 79.5 27.8001 79.5 29.0001C79.5 30.1001 79.3999 31.3001 79.1999 32.4001C79.1999 32.6001 79.0999 32.8001 79.0999 32.9001C79.0999 33.1001 79 33.3001 79 33.4001C79 33.6001 78.9 33.8001 78.9 33.9001C78.8 34.1001 78.7999 34.3001 78.6999 34.4001L78.3 35.7001L77.0999 34.8001C76.3999 34.3001 75.7 33.8001 75 33.4001C74.3 33.0001 73.5 32.5001 72.8 32.2001C71.3 31.4001 69.6999 30.8001 68.0999 30.3001L67.1999 30.0001L67.3 29.1001C67.3 28.8001 67.3 28.5001 67.3 28.2001C67.3 27.9001 67.1999 27.6001 67.0999 27.3001C66.9999 27.0001 66.9 26.7001 66.8 26.4001C66.7 26.1001 66.5 25.9001 66.3 25.6001C66 25.1001 65.5999 24.7001 65.0999 24.4001C64.6999 24.1001 64.1999 23.8001 63.5999 23.6001C62.4999 23.2001 61.3999 23.2001 60.2999 23.5001C60.1999 23.5001 60 23.6001 59.9 23.6001C59.8 23.6001 59.7 23.7001 59.5 23.7001C59.4 23.8001 59.2999 23.8001 59.0999 23.9001C58.9999 24.0001 58.8999 24.0001 58.7999 24.1001L35.5 39.0001C35.2 39.2001 35 39.4001 34.7 39.6001C34.5 39.8001 34.1999 40.1001 34.0999 40.4001C33.8999 40.7001 33.7999 41.0001 33.5999 41.3001C33.4999 41.6001 33.3999 41.9001 33.2999 42.3001C33.1999 42.6001 33.2 43.0001 33.2 43.3001C33.2 44.0001 33.4 44.7001 33.7 45.3001C33.8 45.6001 34 45.9001 34.2 46.2001C34.5 46.7001 34.9 47.1001 35.4 47.4001C35.8 47.7001 36.3 48.0001 36.9 48.2001C38 48.6001 39.1 48.7001 40.2 48.4001C40.3 48.4001 40.4999 48.3001 40.5999 48.3001C40.6999 48.3001 40.8 48.2001 41 48.2001C41.1 48.1001 41.2 48.1001 41.4 48.0001C41.5 47.9001 41.6 47.9001 41.7 47.8001L50.5999 42.1001C50.9999 41.9001 51.3 41.6001 51.7 41.4001C52.1 41.2001 52.5 41.0001 52.9 40.8001C53.3 40.6001 53.6999 40.5001 54.0999 40.3001C54.4999 40.2001 54.8999 40.0001 55.2999 39.9001C57.0999 39.4001 59 39.2001 60.9 39.3001C62.8 39.4001 64.6 39.8001 66.4 40.4001C68.2 41.1001 69.8 42.0001 71.3 43.1001C72.8 44.3001 74.0999 45.6001 75.1999 47.2001C75.8999 48.1001 76.4 49.1001 76.9 50.2001C77.4 51.2001 77.7 52.3001 78 53.4001C78.3 54.5001 78.4 55.6001 78.4 56.8001C78.4 57.9001 78.2999 59.1001 78.0999 60.2001C77.8999 61.3001 77.5999 62.4001 77.1999 63.4001C76.7999 64.4001 76.2999 65.4001 75.5999 66.3001C74.9999 67.2001 74.3 68.1001 73.5 68.9001C72.7 69.7001 71.8 70.4001 70.9 71.0001L47.5 86.0001C47.1 86.2001 46.8 86.5001 46.4 86.7001C46 86.9001 45.6 87.1001 45.2 87.3001C44.8 87.5001 44.4 87.6001 44 87.8001C43.6 87.8001 43.1999 87.9001 42.7999 88.1001Z" fill="white"/>
</g>
<defs>
<clipPath id="clip0_790_10613">
<rect width="100" height="100" fill="white"/>
</clipPath>
</defs>
</svg>
