<svg width="101" height="101" viewBox="0 0 101 101" fill="none" xmlns="http://www.w3.org/2000/svg">
<g id="swagger">
<path id="Vector" d="M50.6 98.2C24.4 98.2 3 76.9 3 50.6C3 24.4 24.4 3 50.6 3C76.8 3 98.2 24.4 98.2 50.6C98.2 76.9 76.9 98.2 50.6 98.2Z" fill="#B7B7B7"/>
<path id="Vector_2" d="M50 5.8C75 5.8 95.2 26 95.2 51C95.2 76 75 96.2 50 96.2C25 96.2 4.8 76 4.8 51C4.8 26 25 5.8 50 5.8ZM50 1C22.4 1 0 23.4 0 51C0 78.6 22.4 101 50 101C77.6 101 100 78.6 100 51C100 23.4 77.6 1 50 1Z" fill="#2F2F2F"/>
<path id="Vector_3" d="M31.9 34.4001C31.7 36.1001 32 37.9001 31.8 39.6001C31.7 41.3001 31.5 43.0001 31.1 44.8001C30.6 47.2001 29.1 49.1001 27 50.6001C31.1 53.3001 31.5 57.4001 31.8 61.5001C31.9 63.7001 31.9 66.0001 32.1 68.2001C32.3 69.9001 32.9001 70.4001 34.7001 70.4001C35.4001 70.4001 36.2 70.4001 37 70.4001V75.7001C31.7 76.6001 27.3 75.1001 26.3 70.6001C26 69.0001 25.7 67.3001 25.6 65.6001C25.5 63.8001 25.7 62.0001 25.5 60.2001C25.1 55.3001 24.5 53.6001 19.8 53.4001V47.3001C20.1 47.2001 20.5 47.2001 20.8 47.1001C23.4 47.0001 24.5 46.2001 25 43.6001C25.3 42.2001 25.4 40.7001 25.5 39.3001C25.7 36.5001 25.6 33.7001 26.1 30.9001C26.8 26.9001 29.2 25.0001 33.3 24.8001C34.5 24.7001 35.6 24.8001 37 24.8001V30.3001C36.4 30.3001 36 30.4001 35.5 30.4001C32.3 30.5001 32.2 31.6001 31.9 34.4001ZM38.3 47.0001C36.3 46.9001 34.6 48.4001 34.6 50.3001C34.5 52.2001 36.0001 53.9001 37.9001 54.0001H38.1C40 54.1001 41.6 52.7001 41.8 50.8001V50.6001C41.8 48.7001 40.3 47.1001 38.3 47.0001ZM50.4001 47.0001C48.5001 46.9001 47.0001 48.4001 46.9001 50.2001C46.9001 50.3001 46.9001 50.4001 46.9001 50.5001C46.9001 52.6001 48.3 53.9001 50.5 53.9001C52.6 53.9001 53.9001 52.5001 53.9001 50.3001C53.9001 48.4001 52.5001 47.0001 50.4001 47.0001ZM62.7001 47.0001C60.7001 47.0001 59.1 48.5001 59 50.5001C59 52.5001 60.6 54.0001 62.5 54.0001C64.3 54.3001 66.1 52.6001 66.2 50.5001C66.4 48.7001 64.7001 47.0001 62.7001 47.0001ZM79.7 47.3001C77.5 47.2001 76.4001 46.5001 75.8001 44.3001C75.5001 43.0001 75.2 41.6001 75.2 40.2001C75 37.6001 75.1001 35.0001 74.9001 32.5001C74.5001 26.4001 70.1001 24.3001 63.7001 25.3001V30.6001C64.7001 30.6001 65.5001 30.6001 66.3001 30.6001C67.7001 30.6001 68.7001 31.1001 68.8001 32.7001C68.9001 34.1001 68.9 35.5001 69.1 36.9001C69.4 39.7001 69.5 42.5001 70 45.3001C70.4 47.6001 72.0001 49.3001 73.9001 50.6001C70.5001 52.9001 69.5001 56.2001 69.3001 59.8001C69.2001 62.3001 69.1 64.9001 69 67.4001C68.9 69.7001 68.1001 70.5001 65.8001 70.5001C65.1001 70.5001 64.5 70.6001 63.8 70.6001V76.0001C65.2 76.0001 66.4 76.1001 67.7 76.0001C71.6 75.8001 73.9 73.9001 74.7 70.1001C75 68.0001 75.2001 65.9001 75.3001 63.8001C75.4001 61.9001 75.4 59.9001 75.6 58.0001C75.9 55.0001 77.3 53.8001 80.2 53.6001C80.5 53.6001 80.8 53.5001 81 53.4001V47.3001C80.4 47.4001 80 47.3001 79.7 47.3001Z" fill="#2F2F2F"/>
</g>
</svg>
