<svg xmlns="http://www.w3.org/2000/svg" width="115" height="22" viewBox="0 0 115 22" fill="none"><g clip-path="url(#clip0_3623_3796)"><path d="M17.1262 14.2061C15.7199 14.2061 14.5772 15.3438 14.5772 16.7518C14.5772 18.1598 15.7199 19.3038 17.1262 19.3038C18.5326 19.3038 19.6752 18.1598 19.6752 16.7518C19.6752 15.3438 18.5326 14.2061 17.1262 14.2061ZM22.3686 8.59298C21.6089 7.48669 20.1963 7.13469 19.2106 7.81355C18.2249 8.49241 18.0428 9.93812 18.8025 11.0444C19.5622 12.1507 20.9748 12.5027 21.9605 11.8238C22.9462 11.145 23.122 9.69926 22.3686 8.59298ZM11.0048 0.0192635C10.0191 0.144978 9.28458 0.748406 9.3662 1.37698C9.44782 2.00555 10.3079 2.40784 11.2936 2.28212C12.2793 2.15641 13.0139 1.55298 12.9323 0.924406C12.8507 0.295835 11.9905 -0.100165 11.0048 0.0192635ZM9.2218 16.9655C7.92219 16.9655 6.87371 18.0907 6.87371 19.4861C6.87371 20.8815 7.92847 22.0067 9.2218 22.0067C10.5151 22.0067 11.5699 20.8815 11.5699 19.4861C11.5699 18.0907 10.5151 16.9655 9.2218 16.9655ZM17.4903 5.01012C18.6267 5.47526 19.8196 5.17984 20.1649 4.35012C20.5102 3.51412 19.8698 2.45812 18.7335 1.99298C17.5971 1.52784 16.4042 1.82326 16.0589 2.65298C15.7136 3.48898 16.354 4.54498 17.4903 5.01012ZM2.66723 10.3153C3.1695 9.39755 3.04393 8.36041 2.39099 8.00841C1.73804 7.65012 0.802572 8.10898 0.300306 9.02669C-0.20196 9.94441 -0.0763934 10.9816 0.576552 11.3336C1.2295 11.6918 2.16497 11.233 2.66723 10.3153ZM3.24484 13.8227C2.21519 13.6907 1.24833 14.5833 1.0851 15.8278C0.92186 17.0724 1.63131 18.185 2.66095 18.317C3.6906 18.449 4.65746 17.5564 4.8207 16.3118C4.98393 15.0673 4.27448 13.9547 3.24484 13.8227ZM4.13008 3.01126C3.43947 3.52669 3.13811 4.29355 3.4583 4.72098C3.7785 5.14841 4.59468 5.07298 5.28529 4.55755C5.97591 4.04212 6.27727 3.27526 5.95707 2.84784C5.63688 2.42041 4.8207 2.48955 4.13008 3.01126ZM113.994 11.8804C113.348 11.2141 112.249 10.6673 110.692 10.2398L107.722 9.45412C106.875 9.22784 106.26 8.97012 105.87 8.66212C105.487 8.36041 105.293 7.97069 105.293 7.50555C105.293 6.87698 105.588 6.39298 106.172 6.04726C106.774 5.70155 107.616 5.53184 108.689 5.53184C109.763 5.53184 110.529 5.75183 111.113 6.19812C111.715 6.61926 112.073 7.24784 112.174 8.07755H114.811C114.767 6.63812 114.183 5.48783 113.053 4.62041C111.941 3.73412 110.497 3.28784 108.721 3.28784C106.944 3.28784 105.418 3.69012 104.326 4.50098C103.252 5.29298 102.719 6.37412 102.719 7.75069C102.719 8.82555 103.07 9.69298 103.78 10.3593C104.508 11.0255 105.669 11.5535 107.264 11.937L110.083 12.6347C110.931 12.861 111.54 13.1187 111.904 13.4267C112.268 13.7284 112.45 14.1307 112.45 14.6398C112.45 15.3061 112.136 15.8341 111.514 16.2175C110.887 16.5821 110.02 16.7644 108.909 16.7644C107.798 16.7644 106.95 16.5318 106.241 16.0667C105.556 15.5827 105.161 14.885 105.06 13.9735H102.423C102.486 15.5953 103.058 16.8335 104.15 17.7073C105.261 18.5747 106.837 19.0084 108.878 19.0084C110.799 19.0084 112.293 18.6124 113.36 17.8267C114.453 17.0347 114.999 15.9473 114.999 14.5518C114.999 13.4204 114.666 12.5278 114.001 11.8804H113.994ZM93.6778 4.84041C92.8302 5.67012 92.4033 6.85184 92.4033 8.39184V18.7381H95.0088V8.42326C95.0088 7.65641 95.2097 7.06555 95.6115 6.66326C96.0384 6.24212 96.6286 6.02841 97.4008 6.02841H101.218V3.57069H97.3067C95.7496 3.57069 94.5379 3.99184 93.6715 4.84669L93.6778 4.84041ZM87.4183 9.90669C87.299 8.59298 86.8407 7.56212 86.0559 6.81412C85.2711 6.04726 84.2603 5.65755 83.0235 5.65755C81.6485 5.65755 80.5812 6.02212 79.8152 6.75126C79.0493 7.45526 78.5345 8.51126 78.2708 9.90669H87.4246H87.4183ZM88.1152 5.38726C89.3709 6.76383 89.9924 8.70612 89.9924 11.2141L89.961 12.0627H78.2645C78.3461 13.3575 78.7793 14.4576 79.5641 15.369C80.3552 16.2804 81.4853 16.733 82.9544 16.733C84.028 16.733 84.9132 16.5067 85.6227 16.0667C86.3321 15.6015 86.8219 14.9667 87.1044 14.1558H89.7727C89.6094 14.9478 89.2453 15.7147 88.6802 16.4627C88.134 17.2107 87.3681 17.8267 86.3761 18.317C85.4092 18.7821 84.2666 19.0147 82.9544 19.0147C81.5606 19.0147 80.3175 18.7004 79.2251 18.0781C78.1327 17.4496 77.2725 16.5507 76.651 15.3753C76.0482 14.181 75.7406 12.7855 75.7406 11.189C75.7406 9.59241 76.0545 8.11526 76.6761 6.93984C77.3039 5.74555 78.164 4.84669 79.2502 4.24326C80.3426 3.61469 81.5795 3.30669 82.9732 3.30669C85.133 3.30669 86.8407 4.00441 88.0964 5.39984L88.1152 5.38726ZM68.3761 16.3055L63.9813 3.56441H61.1937L66.8003 18.7318H69.9206L75.4644 3.56441H72.7396L68.3761 16.3055ZM56.6357 18.7318H59.2412V3.56441H56.6357V18.7318ZM52.9943 5.80841C53.4212 6.63812 53.6284 7.65012 53.6284 8.84441V18.7318H51.0229V8.86955C51.0229 7.87641 50.7717 7.10955 50.2632 6.56269C49.7609 5.99698 49.0703 5.71412 48.2039 5.71412C47.4379 5.71412 46.7976 5.92784 46.2953 6.34898C45.8119 6.77012 45.3975 7.46155 45.0522 8.41069L42.7166 14.9038C42.2332 16.2553 41.5363 17.2798 40.626 17.9713C39.7156 18.6627 38.5478 19.0021 37.1101 19.0021C35.9361 19.0021 34.9378 18.7884 34.1091 18.3673C33.2992 17.9398 32.6839 17.3175 32.257 16.4878C31.8551 15.6581 31.6542 14.6461 31.6542 13.4518V3.56441H34.2597V13.4267C34.2597 14.4198 34.5109 15.1993 35.0194 15.7587C35.528 16.3055 36.2123 16.5758 37.0787 16.5758C37.8447 16.5758 38.4725 16.3621 38.9559 15.941C39.4645 15.5198 39.8851 14.8284 40.2304 13.8793L42.566 7.38612C43.0494 6.03469 43.7463 5.01012 44.6566 4.32498C45.567 3.63355 46.7411 3.29412 48.1725 3.29412C49.3403 3.29412 50.3322 3.50783 51.1422 3.92898C51.9709 4.35012 52.5862 4.97869 52.9943 5.80841Z" fill="#1E1E1E"></path></g><defs><clipPath id="clip0_3623_3796"><rect width="115" height="22" fill="white"></rect></clipPath></defs></svg>